<svg width="638" height="972" viewBox="0 0 638 972" fill="none" xmlns="http://www.w3.org/2000/svg">
<path d="M407.624 472.145C476.44 473.333 514.59 363.3 583.083 370.071C643.289 376.023 689.946 442.527 703.878 501.432C717.728 559.994 659.438 611.894 654.461 671.867C649.925 726.535 691.868 779.492 676.435 832.13C659.957 888.334 623.469 947.684 568.057 966.572C511.952 985.697 452.503 949.896 397.779 927.116C356.874 910.088 331.834 869.267 291.303 851.367C242.164 829.664 167.905 856.803 137.798 812.295C108.711 769.295 145.751 710.299 162.676 661.214C175.992 622.596 215.369 597.969 225.356 558.358C241.493 494.36 177.951 392.317 237.588 364.108C299.34 334.9 339.329 470.966 407.624 472.145Z" fill="#C7C1FB" fill-opacity="0.3"/>
<path d="M462.58 453.645C480.499 453.954 496.3 447.01 510.874 436.792C524.856 426.989 537.9 414.031 550.715 401.3C551.222 400.795 551.729 400.292 552.236 399.788C565.619 386.5 578.783 373.605 592.818 364.423C606.802 355.274 621.462 349.94 637.837 351.559C667.078 354.45 693.248 372.077 713.925 396.509C734.59 420.928 749.565 451.92 756.445 481.008C763.146 509.341 752.453 536.219 738.98 564.031C737.161 567.786 735.29 571.559 733.409 575.352C721.493 599.383 709.161 624.252 706.97 650.661C704.883 675.808 712.431 700.575 719.743 724.571C720.549 727.216 721.353 729.852 722.14 732.478C730.14 759.166 736.521 784.898 729.036 810.426C712.643 866.34 676.512 924.71 622.25 943.206C594.938 952.516 566.667 948.515 538.178 939.183C519.309 933.001 500.624 924.591 482.16 916.281C472.626 911.99 463.151 907.725 453.74 903.808C433.732 895.479 417.543 881.308 401.059 866.698L400.141 865.884C384.055 851.623 367.612 837.045 347.313 828.08C334.658 822.491 320.484 820.086 306.03 818.874C297.12 818.126 287.927 817.824 278.881 817.527C273.348 817.345 267.87 817.165 262.544 816.886C234.033 815.393 209.168 811.033 194.869 789.895C180.967 769.344 182.704 744.788 190.381 718.743C194.21 705.75 199.473 692.537 204.87 679.434C205.686 677.453 206.505 675.474 207.322 673.499C211.897 662.45 216.424 651.515 220.039 641.029C226.202 623.156 238.105 608.316 250.286 593.128C250.929 592.327 251.572 591.525 252.216 590.721C264.942 574.824 277.636 558.372 282.78 537.969C286.937 521.485 285.932 502.714 283.163 483.616C281.514 472.243 279.194 460.518 276.919 449.018C275.395 441.314 273.891 433.712 272.623 426.386C269.42 407.891 267.651 390.874 270.245 376.814C272.806 362.932 279.594 352.02 293.657 345.368C308.105 338.534 321.259 341.262 334.253 349.605C347.398 358.044 360.096 372.065 373.257 387.362C374.914 389.287 376.576 391.231 378.247 393.185C389.752 406.636 401.634 420.529 414.286 431.545C428.789 444.172 444.648 453.335 462.58 453.645Z" stroke="#665CF5" stroke-width="5"/>
<path d="M168.646 -51.3261C189.732 -59.9853 210.213 -68.2676 232.341 -73.7865C254.928 -79.4198 277.247 -85.0958 300.529 -84.2184C326.625 -83.2351 354.545 -82.8742 376.277 -68.3624C398.282 -53.6681 413.238 -29.2194 420.802 -3.90474C428.056 20.3727 416.643 45.74 417.926 71.0266C419.29 97.9124 440.068 125.741 428.615 150.076C417.199 174.334 380.401 173.354 361.038 191.906C339.05 212.973 337.267 255.19 308.468 265.189C280.72 274.823 252.992 249.041 225.324 239.026C200.358 229.99 175.429 222.541 152.704 208.807C127.847 193.785 103.902 177.414 85.808 154.712C65.367 129.065 40.1652 101.31 40.9456 68.5902C41.7277 35.8007 65.9642 7.16348 89.8625 -15.2781C111.165 -35.2822 141.589 -40.2152 168.646 -51.3261Z" fill="#EEECFE"/>
<path d="M182.785 -73.3919C203.888 -82.0578 224.18 -90.2577 246.067 -95.7166L246.959 -95.939C269.313 -101.515 290.934 -106.909 313.416 -106.062C314.516 -106.02 315.616 -105.98 316.717 -105.939C342.029 -105.009 367.602 -104.07 387.611 -90.7084C408.881 -76.505 423.503 -52.7339 430.927 -27.8868C434.354 -16.4179 433.412 -4.56854 431.633 7.91846C431.31 10.1856 430.958 12.4799 430.602 14.7958C429.029 25.0445 427.391 35.717 427.93 46.3377C428.288 53.3986 429.915 60.4361 431.901 67.292C432.895 70.7245 433.99 74.146 435.071 77.5133L435.212 77.9513C436.249 81.1812 437.27 84.359 438.199 87.5142C442.112 100.806 444.116 112.876 438.901 123.958C433.752 134.899 422.809 140.371 409.713 145.496C407.912 146.201 406.065 146.902 404.196 147.611C399.441 149.416 394.546 151.273 389.915 153.384C383.416 156.348 377.146 159.932 371.962 164.899C366.13 170.487 361.718 177.397 357.94 184.604C355.422 189.41 353.112 194.501 350.859 199.467C349.762 201.883 348.68 204.27 347.593 206.579C340.785 221.046 333.585 232.965 320.484 237.514C307.771 241.928 294.837 238.336 281.139 231.919C275.886 229.458 270.652 226.648 265.335 223.793C263.729 222.931 262.116 222.065 260.492 221.203C253.553 217.521 246.474 213.945 239.345 211.365C234.724 209.692 230.126 208.08 225.559 206.479C205.237 199.355 185.542 192.45 167.255 181.399C142.455 166.411 118.899 150.265 101.154 128.001C99.2352 125.593 97.2846 123.179 95.3249 120.754C86.7501 110.141 78.0011 99.3118 70.9739 87.8904C62.3689 73.9046 56.5739 59.3689 56.9447 43.8208C57.6946 12.383 81.0199 -15.4925 104.916 -37.9321C115.141 -47.5333 127.638 -53.5988 141.15 -58.6692C146.901 -60.8272 152.778 -62.7854 158.728 -64.7676C159.773 -65.1156 160.82 -65.4644 161.868 -65.8151C168.863 -68.1541 175.92 -70.5728 182.785 -73.3919Z" stroke="#1C34FD" stroke-width="6"/>
</svg>
