<svg width="680" height="1005" viewBox="0 0 680 1005" fill="none" xmlns="http://www.w3.org/2000/svg">
<circle cx="509.82" cy="155.5" r="29.5" transform="rotate(90 509.82 155.5)" fill="#E3E0FD"/>
<circle cx="684.32" cy="54" r="40" transform="rotate(90 684.32 54)" fill="#E3E0FD"/>
<circle cx="514.82" cy="164.5" r="27.5" transform="rotate(90 514.82 164.5)" stroke="#665CF5" stroke-width="4"/>
<circle cx="161" cy="448" r="44" fill="#E3E0FD"/>
<circle cx="154" cy="473" r="42" stroke="#665CF5" stroke-width="4"/>
<path d="M358.8 945.357L393.526 965.406L358.8 985.455L358.8 945.357Z" fill="#E3E0FD"/>
<path d="M696.243 252.722L675.191 310.226L635.917 263.242L696.243 252.722Z" fill="#E3E0FD"/>
<path d="M572.37 333.693L545.682 406.592L495.893 347.03L572.37 333.693Z" fill="#E3E0FD"/>
<path d="M358.049 988.179L358.049 955.009L386.775 971.594L358.049 988.179Z" stroke="#665CF5" stroke-width="4"/>
<path d="M628.75 267.322L682.25 257.992L663.58 308.989L628.75 267.322Z" stroke="#665CF5" stroke-width="4"/>
<path d="M485.801 351.833L555.453 339.686L531.146 406.08L485.801 351.833Z" stroke="#665CF5" stroke-width="4"/>
<path d="M128.77 900.23L128.77 980.77L59.0202 940.5L128.77 900.23Z" fill="#E3E0FD"/>
<path d="M34.9226 671.378L95.4104 706.301L34.9226 741.223L34.9226 671.378Z" fill="#E3E0FD"/>
<path d="M88.0404 939.52L151.79 902.714L151.79 976.326L88.0404 939.52Z" stroke="#1C34FD" stroke-width="4"/>
<path d="M47.0357 718.544L47.0357 655.627L101.523 687.085L47.0357 718.544Z" stroke="#1C34FD" stroke-width="4"/>
<path d="M449.624 472.145C518.44 473.333 556.59 363.3 625.083 370.071C685.288 376.023 731.946 442.527 745.878 501.432C759.728 559.994 701.438 611.894 696.461 671.867C691.925 726.535 733.868 779.492 718.435 832.13C701.957 888.334 665.469 947.684 610.057 966.572C553.952 985.697 494.503 949.896 439.779 927.116C398.874 910.088 373.834 869.267 333.303 851.367C284.164 829.664 209.905 856.803 179.798 812.295C150.711 769.295 187.751 710.299 204.676 661.214C217.992 622.596 257.369 597.969 267.356 558.358C283.493 494.36 219.951 392.317 279.588 364.108C341.34 334.9 381.329 470.966 449.624 472.145Z" fill="#C7C1FB" fill-opacity="0.3"/>
<path d="M504.58 453.645C522.499 453.954 538.3 447.01 552.874 436.792C566.856 426.989 579.9 414.031 592.715 401.3C593.222 400.795 593.729 400.292 594.236 399.788C607.619 386.5 620.783 373.605 634.818 364.423C648.802 355.274 663.462 349.94 679.837 351.559C709.078 354.45 735.248 372.077 755.925 396.509C776.59 420.928 791.565 451.92 798.445 481.008C805.146 509.341 794.453 536.219 780.98 564.031C779.161 567.786 777.29 571.559 775.409 575.353C763.493 599.383 751.161 624.252 748.97 650.661C746.883 675.808 754.431 700.575 761.743 724.571C762.549 727.216 763.353 729.852 764.14 732.478C772.14 759.166 778.521 784.898 771.036 810.426C754.643 866.34 718.512 924.71 664.25 943.206C636.938 952.516 608.667 948.515 580.178 939.183C561.309 933.001 542.624 924.591 524.16 916.281C514.626 911.99 505.151 907.725 495.74 903.808C475.732 895.479 459.543 881.308 443.059 866.698L442.141 865.884C426.055 851.623 409.612 837.045 389.313 828.08C376.658 822.491 362.484 820.086 348.03 818.874C339.12 818.126 329.927 817.824 320.881 817.527C315.348 817.345 309.87 817.165 304.544 816.886C276.033 815.393 251.168 811.033 236.869 789.895C222.967 769.344 224.704 744.788 232.381 718.743C236.21 705.75 241.473 692.537 246.87 679.434C247.686 677.453 248.505 675.474 249.322 673.499C253.897 662.45 258.424 651.515 262.039 641.029C268.202 623.156 280.105 608.316 292.286 593.128C292.929 592.327 293.572 591.525 294.216 590.721C306.942 574.824 319.636 558.372 324.78 537.969C328.937 521.485 327.932 502.714 325.163 483.616C323.514 472.243 321.194 460.518 318.919 449.018C317.395 441.315 315.891 433.712 314.623 426.386C311.42 407.891 309.651 390.874 312.245 376.814C314.806 362.932 321.594 352.02 335.657 345.368C350.105 338.534 363.259 341.262 376.253 349.605C389.398 358.044 402.096 372.065 415.257 387.362C416.913 389.287 418.576 391.231 420.247 393.185C431.752 406.636 443.634 420.529 456.286 431.545C470.789 444.172 486.648 453.335 504.58 453.645Z" stroke="#665CF5" stroke-width="5"/>
<path d="M210.646 -51.3261C231.732 -59.9853 252.213 -68.2676 274.341 -73.7865C296.928 -79.4198 319.247 -85.0958 342.529 -84.2184C368.625 -83.2351 396.545 -82.8742 418.277 -68.3624C440.282 -53.6681 455.238 -29.2194 462.802 -3.90474C470.056 20.3727 458.643 45.74 459.926 71.0266C461.29 97.9124 482.068 125.741 470.615 150.076C459.199 174.334 422.401 173.354 403.038 191.906C381.05 212.973 379.267 255.19 350.468 265.189C322.72 274.823 294.992 249.041 267.324 239.026C242.358 229.99 217.429 222.541 194.704 208.807C169.847 193.785 145.902 177.414 127.808 154.712C107.367 129.065 82.1652 101.31 82.9456 68.5902C83.7277 35.8007 107.964 7.16349 131.863 -15.2781C153.165 -35.2822 183.589 -40.2152 210.646 -51.3261Z" fill="#EEECFE"/>
<path d="M224.785 -73.3919C245.888 -82.0578 266.18 -90.2578 288.067 -95.7166L288.959 -95.939C311.313 -101.515 332.934 -106.909 355.416 -106.062C356.516 -106.02 357.616 -105.98 358.717 -105.939C384.029 -105.009 409.602 -104.07 429.611 -90.7084C450.881 -76.505 465.503 -52.7339 472.927 -27.8868C476.354 -16.4179 475.412 -4.56854 473.633 7.91846C473.31 10.1856 472.958 12.4799 472.602 14.7958C471.029 25.0445 469.391 35.717 469.93 46.3377C470.288 53.3986 471.915 60.4361 473.901 67.292C474.895 70.7244 475.99 74.146 477.071 77.5134L477.212 77.95C478.249 81.1803 479.27 84.3586 480.199 87.5142C484.112 100.806 486.116 112.876 480.901 123.958C475.752 134.899 464.809 140.371 451.713 145.496C449.912 146.201 448.065 146.902 446.196 147.611C441.441 149.416 436.546 151.273 431.915 153.384C425.416 156.348 419.146 159.932 413.962 164.899C408.13 170.487 403.718 177.397 399.94 184.604C397.422 189.41 395.112 194.501 392.859 199.467C391.762 201.883 390.68 204.27 389.593 206.579C382.785 221.046 375.585 232.965 362.484 237.514C349.771 241.928 336.837 238.336 323.139 231.919C317.886 229.458 312.652 226.648 307.335 223.793C305.729 222.931 304.116 222.065 302.492 221.203C295.553 217.521 288.474 213.945 281.345 211.365C276.724 209.692 272.126 208.08 267.559 206.479C247.237 199.355 227.542 192.45 209.255 181.399C184.455 166.411 160.899 150.265 143.154 128.001C141.235 125.593 139.285 123.179 137.325 120.754C128.75 110.141 120.001 99.3119 112.974 87.8904C104.369 73.9046 98.5739 59.3689 98.9447 43.8208C99.6946 12.383 123.02 -15.4925 146.916 -37.9321C157.141 -47.5333 169.638 -53.5988 183.15 -58.6692C188.901 -60.8272 194.778 -62.7853 200.728 -64.7675C201.773 -65.1156 202.819 -65.4643 203.868 -65.8151C210.863 -68.1541 217.92 -70.5728 224.785 -73.3919Z" stroke="#1C34FD" stroke-width="6"/>
</svg>
